<svg width="99" height="96" viewBox="0 0 99 96" fill="none" xmlns="http://www.w3.org/2000/svg">
<path d="M58.6182 28.104C58.6182 33.0709 54.5911 37.0987 49.6236 37.0987C44.6553 37.0987 40.6289 33.0709 40.6289 28.104C40.6289 23.1365 44.6553 19.1094 49.6236 19.1094C54.5911 19.1094 58.6182 23.1365 58.6182 28.104Z" fill="white"/>
<path d="M83.3467 55.9581V60.4372C82.4871 60.3493 81.6233 60.3065 80.7589 60.3072C79.1262 60.3051 77.4978 60.4484 75.8905 60.7338L75.8883 60.7366C74.0027 57.5289 70.5603 55.5603 66.8396 55.5624L67.0982 56.4037C67.7089 58.399 67.9015 60.4997 67.6654 62.5731C62.9642 64.3196 58.9673 67.5603 56.2867 71.7975L54.9844 73.8554H51.5961C50.6298 73.8554 49.8468 74.639 49.8461 75.6047V83.1066H15.4333V26.3856L15.2822 26.1811L49.3907 1.34912L82.3866 25.3722L83.3467 26.0715V55.9581ZM58.6187 28.104C58.6187 23.1365 54.5915 19.1093 49.624 19.1093C44.6558 19.1093 40.6294 23.1365 40.6294 28.104C40.6294 33.0708 44.6558 37.0987 49.624 37.0987C54.5915 37.0987 58.6187 33.0708 58.6187 28.104Z" fill="#1B56D0"/>
<path d="M97.4105 37.6609C97.1252 37.6609 96.8476 37.5702 96.617 37.4022L49.3897 3.01825L2.16034 37.4022C1.77168 37.6946 1.2544 37.7558 0.808114 37.5604C0.361824 37.3657 0.0553954 36.944 0.00690085 36.4598C-0.0422964 35.9748 0.174172 35.5018 0.57267 35.2207L48.5942 0.258286C49.0679 -0.0860953 49.7102 -0.0860953 50.1832 0.258286L98.2054 35.2207C98.6784 35.5651 98.8745 36.1737 98.6939 36.7296C98.5132 37.2856 97.9946 37.6609 97.4105 37.6609Z" fill="#13B6B6"/>
<path d="M66.053 50.9007L66.0551 50.8979C67.6624 50.6126 69.2909 50.4692 70.9235 50.4713C71.788 50.4706 72.6517 50.5135 73.5113 50.6013C85.1556 51.7659 94.2121 60.7072 94.2121 71.5657C94.2121 78.7928 90.2004 85.173 84.0831 88.9724C82.5446 89.9283 81.6092 91.6101 81.6092 93.4206C81.6092 94.8452 80.4544 95.9999 79.0291 95.9999H75.4412C74.0166 95.9999 72.8626 94.8445 72.8612 93.4206C72.8605 91.9967 71.7065 90.8419 70.2825 90.8419H63.5861C62.1608 90.8398 61.0053 91.9952 61.0039 93.4206C61.0053 94.1051 60.7333 94.7608 60.2498 95.2451C59.7656 95.7279 59.1098 96.0006 58.4253 95.9999H54.8388C53.4135 96.0006 52.2574 94.8452 52.2574 93.4206C52.2686 89.6654 50.8862 86.0396 48.3785 83.2452C47.1198 81.8662 46.0718 80.3088 45.2685 78.6241H41.7608C40.7944 78.6241 40.0114 77.8405 40.0107 76.8748V65.7689C40.0114 64.8032 40.7944 64.0195 41.7608 64.0195H45.149L46.4514 61.9617C49.1319 57.7244 53.1289 54.4837 57.83 52.7372C58.0662 50.6639 57.8736 48.5631 57.2628 46.5678L57.0042 45.7266C60.7249 45.7245 64.1673 47.6931 66.053 50.9007V50.9007Z" fill="#13B6B6"/>
<path d="M68.3393 69.4236C66.8753 69.4236 65.6875 68.2358 65.6875 66.7712C65.6875 65.3072 66.8753 64.1208 68.3393 64.1208C69.8032 64.1208 70.9903 65.3072 70.9903 66.7712C70.9903 67.5176 71.594 68.1206 72.3397 68.1206C73.0847 68.1206 73.6891 67.5176 73.6891 66.7712C73.6856 64.3373 72.0424 62.212 69.6887 61.5942V60.5716C69.6887 59.8273 69.0842 59.2229 68.3393 59.2229C67.5936 59.2229 66.9906 59.8273 66.9906 60.5716V61.5942C64.3838 62.2724 62.6886 64.7808 63.0316 67.4522C63.3732 70.1222 65.6475 72.1224 68.3393 72.1217C69.8039 72.1182 70.9938 73.3032 70.9966 74.7685C70.9994 76.2325 69.8145 77.4231 68.3498 77.4252H68.328C66.8683 77.4182 65.6875 76.2346 65.6861 74.7742C65.6861 74.0299 65.0817 73.4254 64.3367 73.4254C63.591 73.4254 62.9873 74.0299 62.9873 74.7742C62.9908 77.2094 64.6347 79.3361 66.9906 79.9518V81.1564C66.9906 81.9014 67.5936 82.5059 68.3393 82.5059C69.0842 82.5059 69.6887 81.9014 69.6887 81.1564V79.9518C72.2905 79.2701 73.9822 76.7631 73.6406 74.0945C73.299 71.4259 71.0289 69.4271 68.3393 69.4236V69.4236Z" fill="white"/>
</svg>
