<svg width="18" height="18" viewBox="0 0 18 18" fill="none" xmlns="http://www.w3.org/2000/svg">
<path d="M9.79784 9.79787L8.3616 11.2341L6.76591 9.63843L8.20216 8.20219L7.45651 7.45654L6.02027 8.89279L4.92108 7.7936L2.19282 10.5218C0.917178 11.7975 0.881219 13.8501 2.08431 15.17L0 17.2544L0.745644 18L2.82978 15.9159C3.45117 16.4829 4.2502 16.7935 5.09698 16.7935C5.99647 16.7935 6.84212 16.4432 7.47817 15.8072L10.2064 13.0789L9.10721 11.9797L10.5435 10.5435L9.79784 9.79787ZM6.73252 15.0615C6.29564 15.4984 5.71481 15.739 5.09698 15.739C4.47914 15.739 3.89831 15.4984 3.46143 15.0615L2.9385 14.5386C2.03668 13.6367 2.03668 12.1693 2.9385 11.2675L4.92112 9.28489L8.71511 13.0789L6.73252 15.0615Z" fill="white"/>
<path d="M18.0003 0.745644L17.2547 0L15.1706 2.08413C14.5492 1.51709 13.7501 1.20654 12.9034 1.20654C12.0039 1.20654 11.1582 1.55681 10.5222 2.19285L7.79395 4.92112L13.0792 10.2064L15.8075 7.47817C17.0831 6.20252 17.1191 4.14981 15.916 2.82999L18.0003 0.745644ZM15.0618 6.73252L13.0792 8.71511L9.28523 4.92112L11.2678 2.9385C11.7047 2.50165 12.2855 2.26105 12.9034 2.26105C13.5212 2.26105 14.102 2.50165 14.5389 2.9385L15.0618 3.46143C15.9637 4.36328 15.9637 5.83067 15.0618 6.73252Z" fill="white"/>
</svg>
