<svg width="60" height="60" viewBox="0 0 60 60" fill="none" xmlns="http://www.w3.org/2000/svg">
<path d="M32.6595 32.6595L27.872 37.4469L22.553 32.128L27.3405 27.3405L24.855 24.855L20.0676 29.6425L16.4036 25.9786L7.3094 35.0727C3.05726 39.3248 2.9374 46.167 6.9477 50.5666L0 57.5145L2.48548 60L9.43259 53.0529C11.5039 54.943 14.1673 55.9782 16.9899 55.9782C19.9882 55.9782 22.8071 54.8106 24.9272 52.6905L34.0213 43.5963L30.3574 39.9323L35.1448 35.1448L32.6595 32.6595ZM22.4417 50.205C20.9855 51.6612 19.0494 52.4632 16.9899 52.4632C14.9305 52.4632 12.9944 51.6612 11.5381 50.205L9.79499 48.4618C6.78894 45.4556 6.78894 40.5643 9.79499 37.5581L16.4037 30.9495L29.0504 43.5961L22.4417 50.205Z" fill="#1B56D0"/>
<path d="M59.9998 2.48548L57.5144 0L50.5672 6.94711C48.4959 5.05696 45.8325 4.02179 43.0099 4.02179C40.0116 4.02179 37.1928 5.18936 35.0726 7.30951L25.9785 16.4037L43.5961 34.0213L52.6903 24.9272C56.9425 20.6751 57.0623 13.8327 53.052 9.4333L59.9998 2.48548ZM50.2048 22.4417L43.5961 29.0504L30.9495 16.4037L37.5581 9.795C39.0144 8.33883 40.9505 7.53682 43.0099 7.53682C45.0694 7.53682 47.0055 8.33883 48.4617 9.795L50.2048 11.5381C53.2109 14.5443 53.2109 19.4356 50.2048 22.4417Z" fill="#1B56D0"/>
</svg>
