<svg width="163" height="42" viewBox="0 0 163 42" fill="none" xmlns="http://www.w3.org/2000/svg">
<path fill-rule="evenodd" clip-rule="evenodd" d="M28.8752 28.8752V34.125H34.125V28.8752H28.8752ZM7.875 7.875V13.1248H28.8752V18.3751H13.1248V23.6249H18.3751V28.8752H13.1248V34.125H23.6249V23.6249H34.125V7.875H7.875Z" fill="#1B56D0"/>
<path d="M43.44 29V12.2H53.232V13.496H44.736V19.352H52.08V20.648H44.736V29H43.44ZM60.5383 18.224C60.3463 18.128 60.1423 18.056 59.9263 18.008C59.7103 17.96 59.4823 17.936 59.2423 17.936C58.5063 17.936 57.8383 18.144 57.2383 18.56C56.6463 18.968 56.1783 19.52 55.8343 20.216C55.4903 20.912 55.3183 21.68 55.3183 22.52V29H54.0103V17H55.3063V19.184C55.7703 18.392 56.3503 17.776 57.0463 17.336C57.7503 16.896 58.5223 16.676 59.3623 16.676C59.6183 16.676 59.8623 16.692 60.0943 16.724C60.3263 16.748 60.5463 16.796 60.7543 16.868L60.5383 18.224ZM66.9309 29.312C65.8269 29.312 64.8189 29.028 63.9069 28.46C63.0029 27.892 62.2789 27.132 61.7349 26.18C61.1989 25.22 60.9309 24.16 60.9309 23C60.9309 22.12 61.0869 21.3 61.3989 20.54C61.7109 19.772 62.1389 19.1 62.6829 18.524C63.2349 17.94 63.8749 17.484 64.6029 17.156C65.3309 16.828 66.1069 16.664 66.9309 16.664C67.8029 16.664 68.6069 16.836 69.3429 17.18C70.0869 17.516 70.7269 17.992 71.2629 18.608C71.7989 19.224 72.2109 19.952 72.4989 20.792C72.7869 21.624 72.9189 22.536 72.8949 23.528H62.2869C62.3749 24.384 62.6309 25.152 63.0549 25.832C63.4869 26.504 64.0389 27.036 64.7109 27.428C65.3829 27.812 66.1229 28.008 66.9309 28.016C67.8189 28.016 68.6189 27.784 69.3309 27.32C70.0429 26.848 70.6149 26.204 71.0469 25.388L72.3549 25.688C71.8749 26.752 71.1509 27.624 70.1829 28.304C69.2149 28.976 68.1309 29.312 66.9309 29.312ZM62.2509 22.424H71.5869C71.5389 21.6 71.2989 20.844 70.8669 20.156C70.4429 19.46 69.8869 18.904 69.1989 18.488C68.5109 18.072 67.7549 17.864 66.9309 17.864C66.1069 17.864 65.3549 18.068 64.6749 18.476C63.9949 18.884 63.4389 19.436 63.0069 20.132C62.5829 20.82 62.3309 21.584 62.2509 22.424ZM78.9566 29.228C78.2926 29.22 77.6406 29.104 77.0006 28.88C76.3686 28.648 75.8166 28.34 75.3446 27.956C74.8726 27.572 74.5446 27.136 74.3606 26.648L75.5006 26.156C75.6366 26.516 75.8966 26.84 76.2806 27.128C76.6726 27.416 77.1126 27.644 77.6006 27.812C78.0966 27.972 78.5806 28.052 79.0526 28.052C79.5886 28.052 80.0926 27.96 80.5646 27.776C81.0366 27.592 81.4206 27.332 81.7166 26.996C82.0126 26.66 82.1606 26.264 82.1606 25.808C82.1606 25.328 82.0046 24.952 81.6926 24.68C81.3806 24.4 80.9806 24.176 80.4926 24.008C80.0126 23.832 79.5166 23.668 79.0046 23.516C78.1246 23.26 77.3606 23 76.7126 22.736C76.0726 22.464 75.5766 22.12 75.2246 21.704C74.8726 21.288 74.6966 20.74 74.6966 20.06C74.6966 19.356 74.9006 18.744 75.3086 18.224C75.7166 17.704 76.2526 17.304 76.9166 17.024C77.5806 16.736 78.2926 16.592 79.0526 16.592C80.0366 16.592 80.9286 16.808 81.7286 17.24C82.5366 17.672 83.1046 18.24 83.4326 18.944L82.3766 19.568C82.2166 19.2 81.9646 18.884 81.6206 18.62C81.2766 18.356 80.8846 18.152 80.4446 18.008C80.0046 17.864 79.5606 17.788 79.1126 17.78C78.5526 17.772 78.0286 17.86 77.5406 18.044C77.0606 18.22 76.6726 18.48 76.3766 18.824C76.0806 19.16 75.9326 19.568 75.9326 20.048C75.9326 20.528 76.0686 20.896 76.3406 21.152C76.6126 21.408 76.9926 21.616 77.4806 21.776C77.9686 21.928 78.5326 22.108 79.1726 22.316C79.9166 22.548 80.6086 22.808 81.2486 23.096C81.8966 23.376 82.4166 23.728 82.8086 24.152C83.2086 24.576 83.4046 25.124 83.3966 25.796C83.3966 26.5 83.1846 27.112 82.7606 27.632C82.3446 28.152 81.7966 28.552 81.1166 28.832C80.4446 29.112 79.7246 29.244 78.9566 29.228ZM95.9961 22.472V29H94.7001V22.52C94.7001 21.68 94.5201 20.912 94.1601 20.216C93.8081 19.52 93.3361 18.968 92.7441 18.56C92.1521 18.144 91.4961 17.936 90.7761 17.936C90.0401 17.936 89.3801 18.144 88.7961 18.56C88.2121 18.968 87.7521 19.52 87.4161 20.216C87.0801 20.912 86.9121 21.68 86.9121 22.52V29H85.6041V11H86.9001V19.112C87.3401 18.304 87.9001 17.696 88.5801 17.288C89.2601 16.88 90.0161 16.676 90.8481 16.676C91.8401 16.676 92.7201 16.944 93.4881 17.48C94.2641 18.008 94.8721 18.716 95.3121 19.604C95.7521 20.484 95.9801 21.44 95.9961 22.472ZM98.4009 29V12.2H104.521C105.409 12.2 106.209 12.384 106.921 12.752C107.641 13.112 108.209 13.632 108.625 14.312C109.049 14.984 109.261 15.78 109.261 16.7C109.261 17.108 109.201 17.52 109.081 17.936C108.961 18.352 108.777 18.728 108.529 19.064C108.281 19.392 107.961 19.636 107.569 19.796C108.089 19.924 108.513 20.156 108.841 20.492C109.169 20.828 109.425 21.224 109.609 21.68C109.793 22.128 109.917 22.588 109.981 23.06C110.053 23.524 110.089 23.956 110.089 24.356C110.089 25.244 109.869 26.036 109.429 26.732C108.989 27.428 108.397 27.98 107.653 28.388C106.917 28.796 106.101 29 105.205 29H98.4009ZM101.329 26.492H104.905C105.385 26.492 105.817 26.376 106.201 26.144C106.585 25.912 106.893 25.592 107.125 25.184C107.357 24.776 107.473 24.312 107.473 23.792C107.473 23.344 107.357 22.92 107.125 22.52C106.893 22.12 106.585 21.796 106.201 21.548C105.817 21.3 105.385 21.176 104.905 21.176H101.329V26.492ZM101.329 18.704H104.185C104.777 18.704 105.281 18.52 105.697 18.152C106.121 17.784 106.333 17.296 106.333 16.688C106.333 16.04 106.121 15.552 105.697 15.224C105.281 14.888 104.777 14.72 104.185 14.72H101.329V18.704ZM121.679 17H124.607V29H121.667L121.547 27.512C121.211 28.048 120.771 28.484 120.227 28.82C119.691 29.148 119.059 29.312 118.331 29.312C117.443 29.312 116.611 29.144 115.835 28.808C115.059 28.472 114.375 28.008 113.783 27.416C113.191 26.824 112.731 26.14 112.403 25.364C112.075 24.588 111.911 23.756 111.911 22.868C111.911 22.012 112.067 21.208 112.379 20.456C112.691 19.704 113.131 19.044 113.699 18.476C114.267 17.908 114.923 17.464 115.667 17.144C116.411 16.824 117.211 16.664 118.067 16.664C118.867 16.664 119.579 16.84 120.203 17.192C120.835 17.544 121.371 17.992 121.811 18.536L121.679 17ZM118.415 26.492C119.055 26.492 119.611 26.328 120.083 26C120.555 25.672 120.911 25.236 121.151 24.692C121.399 24.14 121.499 23.532 121.451 22.868C121.395 22.244 121.211 21.68 120.899 21.176C120.587 20.664 120.187 20.256 119.699 19.952C119.211 19.648 118.663 19.496 118.055 19.496C117.423 19.496 116.855 19.66 116.351 19.988C115.855 20.316 115.471 20.756 115.199 21.308C114.927 21.852 114.819 22.46 114.875 23.132C114.939 23.748 115.139 24.312 115.475 24.824C115.811 25.328 116.235 25.732 116.747 26.036C117.267 26.34 117.823 26.492 118.415 26.492ZM138.935 22.796V29H136.007V22.844C136.007 22.228 135.879 21.668 135.623 21.164C135.367 20.652 135.011 20.244 134.555 19.94C134.107 19.636 133.587 19.484 132.995 19.484C132.419 19.484 131.919 19.636 131.495 19.94C131.071 20.244 130.743 20.652 130.511 21.164C130.287 21.668 130.175 22.228 130.175 22.844V29H127.247V17H130.175V18.416C130.575 17.88 131.051 17.456 131.603 17.144C132.163 16.824 132.795 16.664 133.499 16.664C134.603 16.664 135.559 16.944 136.367 17.504C137.183 18.056 137.811 18.796 138.251 19.724C138.699 20.652 138.927 21.676 138.935 22.796ZM152.373 29H149.001L146.265 24.284L144.585 26.288V29H141.657V11H144.585V21.74L148.557 17H152.385L148.269 21.908L152.373 29Z" fill="#1D201D"/>
</svg>
