<svg width="96" height="96" viewBox="0 0 96 96" fill="none" xmlns="http://www.w3.org/2000/svg">
<path d="M59.015 24.4647L56.8887 21.9294C58.2796 20.7091 60.1142 20.1207 61.9552 20.3042C63.0099 20.4448 64.0751 20.1345 64.8898 19.4507C65.7052 18.7662 66.1942 17.7705 66.2386 16.7077C66.6144 12.8947 69.9676 10.0806 73.7879 10.3731C74.841 10.4944 75.8997 10.1873 76.7241 9.52051L78.8528 12.055C77.4547 13.2624 75.6257 13.8508 73.7863 13.6835C72.73 13.5356 71.6616 13.8459 70.8501 14.5377C70.0331 15.2207 69.5417 16.2172 69.4972 17.2815C69.3275 19.1178 68.4337 20.8117 67.0145 21.9893C65.6163 23.1926 63.7898 23.7794 61.952 23.6145C60.8957 23.461 59.8256 23.7713 59.015 24.4647V24.4647Z" fill="#DDDDE2"/>
<path d="M65.0823 26.8141C63.6931 26.7785 62.3434 26.3469 61.1917 25.5695C60.3512 24.9164 59.2739 24.6465 58.2257 24.8275L57.6494 21.5681C59.463 21.2384 61.334 21.6433 62.8501 22.6923C63.6931 23.3421 64.7704 23.6072 65.8186 23.4221C66.8668 23.237 67.7882 22.6196 68.3579 21.7209C70.5893 18.6061 74.9002 17.8464 78.0627 20.0091C78.9056 20.6597 79.9837 20.9248 81.032 20.7389L81.6082 24C79.7938 24.3305 77.922 23.9256 76.4059 22.8758C75.5621 22.226 74.484 21.9609 73.4358 22.146C72.3868 22.331 71.4646 22.9485 70.894 23.848C69.828 25.3529 68.2084 26.3728 66.39 26.6832C65.9592 26.7648 65.5212 26.8084 65.0823 26.8141Z" fill="#DDDDE2"/>
<path d="M84.4135 59.5861V89.3792C84.4135 93.0355 81.4491 95.9999 77.7928 95.9999H18.2066C14.5504 95.9999 11.5859 93.0355 11.5859 89.3792V59.5861C11.5803 41.3016 26.4049 26.477 44.6894 26.4827H51.3101C69.5946 26.477 84.4192 41.3016 84.4135 59.5861Z" fill="#DDDDE2"/>
<path d="M69.5169 62.8966C69.5169 74.7803 59.8833 84.4139 47.9997 84.4139C36.116 84.4139 26.4824 74.7803 26.4824 62.8966C26.4824 51.013 36.116 41.3794 47.9997 41.3794C59.8833 41.3794 69.5169 51.013 69.5169 62.8966Z" fill="#797992"/>
<path d="M64.5517 3.31034L56.2758 19.8621H39.7241L31.4482 3.31034C35.5862 3.31034 35.5862 0 39.7241 0C43.862 0 43.862 3.31034 48.0161 3.31034C52.171 3.31034 52.1541 0 56.2758 0C60.3976 0 60.4138 3.31034 64.5517 3.31034Z" fill="#DDDDE2"/>
<path d="M59.5865 23.1724V23.2055C59.5614 25.0175 58.0889 26.4755 56.2761 26.4827H39.7244C37.9019 26.469 36.4278 24.9949 36.4141 23.1724C36.4197 21.3467 37.8987 19.8677 39.7244 19.8621H56.2761C58.0986 19.8758 59.5727 21.3499 59.5865 23.1724Z" fill="#797992"/>
<path d="M57.9312 69.5171C57.9312 71.3453 56.449 72.8275 54.6209 72.8275C52.7928 72.8275 51.3105 71.3453 51.3105 69.5171C51.3105 67.689 52.7928 66.2068 54.6209 66.2068C56.449 66.2068 57.9312 67.689 57.9312 69.5171Z" fill="white"/>
<path d="M44.689 56.2759C44.689 58.104 43.2068 59.5863 41.3787 59.5863C39.5506 59.5863 38.0684 58.104 38.0684 56.2759C38.0684 54.4478 39.5506 52.9656 41.3787 52.9656C43.2068 52.9656 44.689 54.4478 44.689 56.2759Z" fill="white"/>
<path d="M36.8984 71.6565L56.7605 51.7944L59.1018 54.135L39.239 73.9978L36.8984 71.6565Z" fill="white"/>
</svg>
